<svg xmlns="http://www.w3.org/2000/svg" width="1900" height="1062" viewBox="0 0 1900 1062" font-family="Helvetica, Arial, sans-serif">
<defs>
<marker id="arr" viewBox="0 0 10 10" refX="9" refY="5" markerWidth="7" markerHeight="7" orient="auto-start-reverse"><path d="M0,0 L10,5 L0,10 z" fill="#334155"/></marker>
<marker id="arrGray" viewBox="0 0 10 10" refX="9" refY="5" markerWidth="7" markerHeight="7" orient="auto-start-reverse"><path d="M0,0 L10,5 L0,10 z" fill="#94a3b8"/></marker>
<marker id="arrRed" viewBox="0 0 10 10" refX="9" refY="5" markerWidth="7" markerHeight="7" orient="auto-start-reverse"><path d="M0,0 L10,5 L0,10 z" fill="#dc2626"/></marker>
<marker id="arrGreen" viewBox="0 0 10 10" refX="9" refY="5" markerWidth="7" markerHeight="7" orient="auto-start-reverse"><path d="M0,0 L10,5 L0,10 z" fill="#059669"/></marker>
</defs>
<rect width="1900" height="1062" fill="#ffffff"/>
<text x="950.0" y="36.0" font-size="25" fill="#0f172a" text-anchor="middle" font-weight="bold">AU Bank Insurance Distribution Platform — R0 Journey State Machine</text>
<text x="950.0" y="60.0" font-size="12.5" fill="#475569" text-anchor="middle">every state #9 may hold, every legal transition, every terminal state, and what compensates when a transition fails · closes S06-G2 / S06-G3</text>
<rect x="52.0" y="84.0" width="1796.0" height="46.0" rx="7" fill="#f1f5f9" stroke="#cbd5e1" stroke-width="1.2"/>
<text x="68.0" y="104.0" font-size="12" fill="#0f172a" font-weight="bold">A state not on this diagram does not exist. A transition not drawn here is a defect, not a feature.</text>
<text x="68.0" y="121.0" font-size="10" fill="#475569">#9 Journey Orchestration owns this machine. It holds the stage and the references — never another context's decision (SC-W3-6). No terminal state is reached by elapsed time, retry count or operator judgement.</text>
<rect x="52.0" y="148.0" width="286.0" height="30.0" rx="6" fill="#dbeafe" stroke="#2563eb" stroke-width="1.4"/>
<text x="195.0" y="168.0" font-size="11.5" fill="#0f172a" text-anchor="middle" font-weight="bold">Open</text>
<rect x="354.0" y="148.0" width="286.0" height="30.0" rx="6" fill="#fef3c7" stroke="#d97706" stroke-width="1.4"/>
<text x="497.0" y="168.0" font-size="11.5" fill="#0f172a" text-anchor="middle" font-weight="bold">Advise — C1 · C2</text>
<rect x="656.0" y="148.0" width="286.0" height="30.0" rx="6" fill="#fef3c7" stroke="#d97706" stroke-width="1.4"/>
<text x="799.0" y="168.0" font-size="11.5" fill="#0f172a" text-anchor="middle" font-weight="bold">Quote</text>
<rect x="958.0" y="148.0" width="286.0" height="30.0" rx="6" fill="#dcfce7" stroke="#16a34a" stroke-width="1.4"/>
<text x="1101.0" y="168.0" font-size="11.5" fill="#0f172a" text-anchor="middle" font-weight="bold">Propose &amp; underwrite</text>
<rect x="1260.0" y="148.0" width="286.0" height="30.0" rx="6" fill="#dcfce7" stroke="#16a34a" stroke-width="1.4"/>
<text x="1403.0" y="168.0" font-size="11.5" fill="#0f172a" text-anchor="middle" font-weight="bold">Pay</text>
<rect x="1562.0" y="148.0" width="286.0" height="30.0" rx="6" fill="#dcfce7" stroke="#16a34a" stroke-width="1.4"/>
<text x="1705.0" y="168.0" font-size="11.5" fill="#0f172a" text-anchor="middle" font-weight="bold">Issue &amp; close</text>
<rect x="52.0" y="196.0" width="286.0" height="60.0" rx="6" fill="#dbeafe" stroke="#2563eb" stroke-width="1.4"/>
<text x="195.0" y="218.0" font-size="10.5" fill="#0f172a" text-anchor="middle" font-weight="bold">OPENED</text>
<text x="195.0" y="232.0" font-size="8.8" fill="#1e40af" text-anchor="middle">journey exists, owner assigned</text>
<rect x="52.0" y="270.0" width="286.0" height="60.0" rx="6" fill="#dbeafe" stroke="#2563eb" stroke-width="1.4"/>
<text x="195.0" y="292.0" font-size="10.5" fill="#0f172a" text-anchor="middle" font-weight="bold">CUSTOMER_LINKED</text>
<text x="195.0" y="306.0" font-size="8.8" fill="#1e40af" text-anchor="middle">ETB snapshot taken, timestamped</text>
<rect x="354.0" y="196.0" width="286.0" height="60.0" rx="6" fill="#dbeafe" stroke="#2563eb" stroke-width="1.4"/>
<text x="497.0" y="218.0" font-size="10.5" fill="#0f172a" text-anchor="middle" font-weight="bold">NEEDS_CAPTURED</text>
<text x="497.0" y="232.0" font-size="8.8" fill="#1e40af" text-anchor="middle">16 suitability inputs recorded</text>
<rect x="354.0" y="270.0" width="286.0" height="60.0" rx="6" fill="#fef3c7" stroke="#dc2626" stroke-width="2.0"/>
<text x="497.0" y="292.0" font-size="10.5" fill="#0f172a" text-anchor="middle" font-weight="bold">SUITABILITY_PASSED</text>
<text x="497.0" y="306.0" font-size="8.8" fill="#92400e" text-anchor="middle">C1 · ref + validity window stored</text>
<rect x="612.0" y="275.0" width="22.0" height="13.0" rx="6.5" fill="#dc2626"/>
<text x="623.0" y="284.7" font-size="8.5" fill="#ffffff" text-anchor="middle" font-weight="bold">C1</text>
<rect x="354.0" y="344.0" width="286.0" height="60.0" rx="6" fill="#fef3c7" stroke="#dc2626" stroke-width="2.0"/>
<text x="497.0" y="366.0" font-size="10.5" fill="#0f172a" text-anchor="middle" font-weight="bold">CONSENT_CAPTURED</text>
<text x="497.0" y="380.0" font-size="8.8" fill="#92400e" text-anchor="middle">C2 · customer-confirmed via OTP</text>
<rect x="612.0" y="349.0" width="22.0" height="13.0" rx="6.5" fill="#dc2626"/>
<text x="623.0" y="358.7" font-size="8.5" fill="#ffffff" text-anchor="middle" font-weight="bold">C2</text>
<rect x="656.0" y="196.0" width="286.0" height="60.0" rx="6" fill="#f1f5f9" stroke="#94a3b8" stroke-width="1.4" stroke-dasharray="4 3"/>
<text x="799.0" y="218.0" font-size="10.5" fill="#0f172a" text-anchor="middle" font-weight="bold">QUOTE_REQUESTED</text>
<text x="799.0" y="232.0" font-size="8.8" fill="#475569" text-anchor="middle">at the insurer via #14 — async</text>
<rect x="656.0" y="270.0" width="286.0" height="60.0" rx="6" fill="#dbeafe" stroke="#2563eb" stroke-width="1.4"/>
<text x="799.0" y="292.0" font-size="10.5" fill="#0f172a" text-anchor="middle" font-weight="bold">QUOTED</text>
<text x="799.0" y="306.0" font-size="8.8" fill="#1e40af" text-anchor="middle">offers normalised, expiry per offer</text>
<rect x="656.0" y="344.0" width="286.0" height="60.0" rx="6" fill="#dbeafe" stroke="#2563eb" stroke-width="1.4"/>
<text x="799.0" y="366.0" font-size="10.5" fill="#0f172a" text-anchor="middle" font-weight="bold">OFFER_SELECTED</text>
<text x="799.0" y="380.0" font-size="8.8" fill="#1e40af" text-anchor="middle">selection is the customer's, recorded</text>
<rect x="958.0" y="196.0" width="286.0" height="60.0" rx="6" fill="#f1f5f9" stroke="#94a3b8" stroke-width="1.4" stroke-dasharray="4 3"/>
<text x="1101.0" y="218.0" font-size="10.5" fill="#0f172a" text-anchor="middle" font-weight="bold">PROPOSAL_SUBMITTING</text>
<text x="1101.0" y="232.0" font-size="8.8" fill="#475569" text-anchor="middle">idempotency key issued, 24 h contract</text>
<rect x="958.0" y="270.0" width="286.0" height="60.0" rx="6" fill="#f1f5f9" stroke="#94a3b8" stroke-width="1.4" stroke-dasharray="4 3"/>
<text x="1101.0" y="292.0" font-size="10.5" fill="#0f172a" text-anchor="middle" font-weight="bold">PROPOSAL_SUBMITTED</text>
<text x="1101.0" y="306.0" font-size="8.8" fill="#475569" text-anchor="middle">insurerRef held — the recovery handle</text>
<rect x="958.0" y="344.0" width="286.0" height="60.0" rx="6" fill="#f1f5f9" stroke="#94a3b8" stroke-width="1.4" stroke-dasharray="4 3"/>
<text x="1101.0" y="366.0" font-size="10.5" fill="#0f172a" text-anchor="middle" font-weight="bold">UW_REQUIREMENTS</text>
<text x="1101.0" y="380.0" font-size="8.8" fill="#475569" text-anchor="middle">insurer wants more — tracked, not decided</text>
<rect x="958.0" y="418.0" width="286.0" height="60.0" rx="6" fill="#dbeafe" stroke="#2563eb" stroke-width="1.4"/>
<text x="1101.0" y="440.0" font-size="10.5" fill="#0f172a" text-anchor="middle" font-weight="bold">UW_APPROVED</text>
<text x="1101.0" y="454.0" font-size="8.8" fill="#1e40af" text-anchor="middle">unlocks payment; nothing else does</text>
<rect x="1260.0" y="196.0" width="286.0" height="60.0" rx="6" fill="#f1f5f9" stroke="#94a3b8" stroke-width="1.4" stroke-dasharray="4 3"/>
<text x="1403.0" y="218.0" font-size="10.5" fill="#0f172a" text-anchor="middle" font-weight="bold">PAYMENT_PENDING</text>
<text x="1403.0" y="232.0" font-size="8.8" fill="#475569" text-anchor="middle">link on the customer device only (C4)</text>
<rect x="1260.0" y="270.0" width="286.0" height="60.0" rx="6" fill="#f1f5f9" stroke="#94a3b8" stroke-width="1.4" stroke-dasharray="4 3"/>
<text x="1403.0" y="292.0" font-size="10.5" fill="#0f172a" text-anchor="middle" font-weight="bold">PAYMENT_UNCERTAIN</text>
<text x="1403.0" y="306.0" font-size="8.8" fill="#475569" text-anchor="middle">no callback — the honest state, not a failure</text>
<rect x="1260.0" y="344.0" width="286.0" height="60.0" rx="6" fill="#fef3c7" stroke="#dc2626" stroke-width="2.0"/>
<text x="1403.0" y="366.0" font-size="10.5" fill="#0f172a" text-anchor="middle" font-weight="bold">PAYMENT_RECONCILED</text>
<text x="1403.0" y="380.0" font-size="8.8" fill="#92400e" text-anchor="middle">settlement matched — the only truth</text>
<rect x="1518.0" y="349.0" width="22.0" height="13.0" rx="6.5" fill="#dc2626"/>
<text x="1529.0" y="358.7" font-size="8.5" fill="#ffffff" text-anchor="middle" font-weight="bold">C4</text>
<rect x="1562.0" y="196.0" width="286.0" height="60.0" rx="6" fill="#dbeafe" stroke="#2563eb" stroke-width="1.4"/>
<text x="1705.0" y="218.0" font-size="10.5" fill="#0f172a" text-anchor="middle" font-weight="bold">POLICY_ISSUED</text>
<text x="1705.0" y="232.0" font-size="8.8" fill="#1e40af" text-anchor="middle">issued — and still not sold</text>
<rect x="1562.0" y="270.0" width="286.0" height="60.0" rx="6" fill="#ecfdf5" stroke="#059669" stroke-width="2.4"/>
<text x="1705.0" y="292.0" font-size="10.5" fill="#0f172a" text-anchor="middle" font-weight="bold">SOLD</text>
<text x="1705.0" y="306.0" font-size="8.8" fill="#065f46" text-anchor="middle">issued ∧ reconciled ∧ audit complete</text>
<rect x="354.0" y="528.0" width="286.0" height="60.0" rx="6" fill="#fef2f2" stroke="#dc2626" stroke-width="1.6"/>
<text x="497.0" y="550.0" font-size="10.5" fill="#0f172a" text-anchor="middle" font-weight="bold">SUITABILITY_FAILED</text>
<text x="497.0" y="564.0" font-size="8.8" fill="#b91c1c" text-anchor="middle">not eligible — the journey ends honestly</text>
<rect x="958.0" y="528.0" width="286.0" height="60.0" rx="6" fill="#fef2f2" stroke="#dc2626" stroke-width="1.6"/>
<text x="1101.0" y="550.0" font-size="10.5" fill="#0f172a" text-anchor="middle" font-weight="bold">UW_DECLINED</text>
<text x="1101.0" y="564.0" font-size="8.8" fill="#b91c1c" text-anchor="middle">the insurer's decision, recorded verbatim</text>
<rect x="1260.0" y="528.0" width="286.0" height="60.0" rx="6" fill="#fef2f2" stroke="#dc2626" stroke-width="1.6"/>
<text x="1403.0" y="550.0" font-size="10.5" fill="#0f172a" text-anchor="middle" font-weight="bold">PAYMENT_FAILED</text>
<text x="1403.0" y="564.0" font-size="8.8" fill="#b91c1c" text-anchor="middle">settled as failed — never assumed, always reconciled</text>
<rect x="1562.0" y="528.0" width="286.0" height="60.0" rx="6" fill="#fef2f2" stroke="#dc2626" stroke-width="1.6"/>
<text x="1705.0" y="550.0" font-size="10.5" fill="#0f172a" text-anchor="middle" font-weight="bold">ABANDONED</text>
<text x="1705.0" y="564.0" font-size="8.8" fill="#b91c1c" text-anchor="middle">explicit, with the last stage retained</text>
<rect x="656.0" y="528.0" width="286.0" height="60.0" rx="6" fill="#fef2f2" stroke="#dc2626" stroke-width="1.6"/>
<text x="799.0" y="550.0" font-size="10.5" fill="#0f172a" text-anchor="middle" font-weight="bold">CANCELLED_IN_FLIGHT</text>
<text x="799.0" y="564.0" font-size="8.8" fill="#b91c1c" text-anchor="middle">customer withdrew — compensation runs</text>
<line x1="195.0" y1="256.0" x2="195.0" y2="270.0" stroke="#334155" stroke-width="1.5" marker-end="url(#arr)"/>
<path d="M338.0,300.0 H346.0 V226.0 H354.0" fill="none" stroke="#334155" stroke-width="1.5" marker-end="url(#arr)"/>
<line x1="497.0" y1="256.0" x2="497.0" y2="270.0" stroke="#334155" stroke-width="1.5" marker-end="url(#arr)"/>
<text x="504.0" y="268.0" font-size="8.5" fill="#334155" font-weight="bold">eligible</text>
<line x1="497.0" y1="330.0" x2="497.0" y2="344.0" stroke="#334155" stroke-width="1.5" marker-end="url(#arr)"/>
<text x="504.0" y="342.0" font-size="8.5" fill="#334155" font-weight="bold">C1 recorded</text>
<path d="M640.0,374.0 H648.0 V226.0 H656.0" fill="none" stroke="#334155" stroke-width="1.5" marker-end="url(#arr)"/>
<text x="651.0" y="220.0" font-size="8.5" fill="#334155" font-weight="bold">C2 recorded</text>
<line x1="799.0" y1="256.0" x2="799.0" y2="270.0" stroke="#94a3b8" stroke-width="1.5" stroke-dasharray="5 4" marker-end="url(#arrGray)"/>
<text x="806.0" y="268.0" font-size="8.5" fill="#94a3b8" font-weight="bold">offers in</text>
<line x1="799.0" y1="330.0" x2="799.0" y2="344.0" stroke="#334155" stroke-width="1.5" marker-end="url(#arr)"/>
<path d="M942.0,374.0 H950.0 V226.0 H958.0" fill="none" stroke="#334155" stroke-width="1.5" marker-end="url(#arr)"/>
<line x1="1101.0" y1="256.0" x2="1101.0" y2="270.0" stroke="#94a3b8" stroke-width="1.5" stroke-dasharray="5 4" marker-end="url(#arrGray)"/>
<text x="1108.0" y="268.0" font-size="8.5" fill="#94a3b8" font-weight="bold">ack</text>
<line x1="1101.0" y1="330.0" x2="1101.0" y2="344.0" stroke="#94a3b8" stroke-width="1.5" stroke-dasharray="5 4" marker-end="url(#arrGray)"/>
<text x="1108.0" y="342.0" font-size="8.5" fill="#94a3b8" font-weight="bold">more needed</text>
<line x1="1101.0" y1="404.0" x2="1101.0" y2="418.0" stroke="#334155" stroke-width="1.5" marker-end="url(#arr)"/>
<text x="1108.0" y="416.0" font-size="8.5" fill="#334155" font-weight="bold">met</text>
<path d="M1244.0,448.0 H1252.0 V226.0 H1260.0" fill="none" stroke="#334155" stroke-width="1.5" marker-end="url(#arr)"/>
<text x="1255.0" y="220.0" font-size="8.5" fill="#334155" font-weight="bold">payment unlocked</text>
<line x1="1403.0" y1="256.0" x2="1403.0" y2="270.0" stroke="#94a3b8" stroke-width="1.5" stroke-dasharray="5 4" marker-end="url(#arrGray)"/>
<text x="1410.0" y="268.0" font-size="8.5" fill="#94a3b8" font-weight="bold">no callback</text>
<line x1="1403.0" y1="330.0" x2="1403.0" y2="344.0" stroke="#334155" stroke-width="1.5" marker-end="url(#arr)"/>
<text x="1410.0" y="342.0" font-size="8.5" fill="#334155" font-weight="bold">settlement matched</text>
<path d="M1546.0,374.0 H1554.0 V226.0 H1562.0" fill="none" stroke="#334155" stroke-width="1.5" marker-end="url(#arr)"/>
<text x="1557.0" y="220.0" font-size="8.5" fill="#334155" font-weight="bold">issuance allowed</text>
<line x1="1705.0" y1="256.0" x2="1705.0" y2="270.0" stroke="#334155" stroke-width="1.5" marker-end="url(#arr)"/>
<text x="1712.0" y="268.0" font-size="8.5" fill="#334155" font-weight="bold">+ audit complete</text>
<path d="M640.0,226.0 H648.0 V510 H497.0 V528" fill="none" stroke="#dc2626" stroke-width="1.5" stroke-dasharray="4 3" marker-end="url(#arrRed)"/>
<text x="653.0" y="220.0" font-size="8.5" fill="#dc2626" font-weight="bold">not eligible</text>
<path d="M1244.0,374.0 H1252.0 V510 H1101.0 V528" fill="none" stroke="#dc2626" stroke-width="1.5" stroke-dasharray="4 3" marker-end="url(#arrRed)"/>
<text x="1257.0" y="368.0" font-size="8.5" fill="#dc2626" font-weight="bold">declined</text>
<path d="M1546.0,300.0 H1554.0 V510 H1403.0 V528" fill="none" stroke="#dc2626" stroke-width="1.5" stroke-dasharray="4 3" marker-end="url(#arrRed)"/>
<text x="1559.0" y="294.0" font-size="8.5" fill="#dc2626" font-weight="bold">settled as failed</text>
<text x="656.0" y="514.0" font-size="9" fill="#64748b" font-weight="bold" letter-spacing="0.5">TERMINAL STATES — reached only by the explicit branch drawn into them</text>
<text x="656.0" y="604.0" font-size="8.8" fill="#475569">ABANDONED and CANCELLED_IN_FLIGHT are reachable from any in-flight state. Both retain the last stage; CANCELLED_IN_FLIGHT after payment opens the refund compensation below.</text>
<text x="52.0" y="620.0" font-size="10" fill="#64748b" font-weight="bold" letter-spacing="1">TRANSITION INVARIANTS — THE TRANSITIONS THAT MUST NOT EXIST</text>
<rect x="52.0" y="634.0" width="289.3" height="72.0" rx="6" fill="#fef2f2" stroke="#dc2626" stroke-width="1.4"/>
<text x="63.0" y="654.0" font-size="9.5" fill="#b91c1c" font-weight="bold">no PAYMENT_* → SOLD directly</text>
<text x="63.0" y="668.0" font-size="9" fill="#334155">SOLD requires POLICY_ISSUED as well — paid is not sold</text>
<rect x="353.3" y="634.0" width="289.3" height="72.0" rx="6" fill="#fef2f2" stroke="#dc2626" stroke-width="1.4"/>
<text x="364.3" y="654.0" font-size="9.5" fill="#b91c1c" font-weight="bold">no POLICY_ISSUED → SOLD without audit</text>
<text x="364.3" y="668.0" font-size="9" fill="#334155">the third leg of INV-JRN-05 is not optional</text>
<rect x="654.7" y="634.0" width="289.3" height="72.0" rx="6" fill="#fef2f2" stroke="#dc2626" stroke-width="1.4"/>
<text x="665.7" y="654.0" font-size="9.5" fill="#b91c1c" font-weight="bold">no PAYMENT_UNCERTAIN → RECONCILED by timeout</text>
<text x="665.7" y="668.0" font-size="9" fill="#334155">only a settlement match moves it</text>
<rect x="956.0" y="634.0" width="289.3" height="72.0" rx="6" fill="#fef2f2" stroke="#dc2626" stroke-width="1.4"/>
<text x="967.0" y="654.0" font-size="9.5" fill="#b91c1c" font-weight="bold">no QUOTED without SUITABILITY_PASSED</text>
<text x="967.0" y="668.0" font-size="9" fill="#334155">C1 is enforced at the transition, not the screen</text>
<rect x="1257.3" y="634.0" width="289.3" height="72.0" rx="6" fill="#fef2f2" stroke="#dc2626" stroke-width="1.4"/>
<text x="1268.3" y="654.0" font-size="9.5" fill="#b91c1c" font-weight="bold">no PROPOSAL_* without CONSENT_CAPTURED</text>
<text x="1268.3" y="668.0" font-size="9" fill="#334155">C2, same rule</text>
<rect x="1558.7" y="634.0" width="289.3" height="72.0" rx="6" fill="#fef2f2" stroke="#dc2626" stroke-width="1.4"/>
<text x="1569.7" y="654.0" font-size="9.5" fill="#b91c1c" font-weight="bold">no state → OPENED</text>
<text x="1569.7" y="668.0" font-size="9" fill="#334155">a journey is never rewound; a new journey is a new journey</text>
<text x="52.0" y="730.0" font-size="10" fill="#64748b" font-weight="bold" letter-spacing="1">COMPENSATION — WHAT RUNS WHEN A TRANSITION FAILS AFTER AN EXTERNAL EFFECT (S-19)</text>
<rect x="52.0" y="744.0" width="1796.0" height="26.0" rx="4" fill="#f1f5f9" stroke="#cbd5e1" stroke-width="1"/>
<text x="60.0" y="760.4" font-size="9" fill="#0f172a" font-weight="bold">Failing transition</text>
<text x="360.0" y="760.4" font-size="9" fill="#0f172a" font-weight="bold">What actually happened</text>
<text x="740.0" y="760.4" font-size="9" fill="#0f172a" font-weight="bold">Compensating action</text>
<text x="1300.0" y="760.4" font-size="9" fill="#0f172a" font-weight="bold">Who runs it</text>
<text x="1600.0" y="760.4" font-size="9" fill="#0f172a" font-weight="bold">Owning context</text>
<text x="60.0" y="786.4" font-size="9" fill="#334155">PROPOSAL_SUBMITTING</text>
<text x="360.0" y="786.4" font-size="9" fill="#334155">submission timed out, effect unknown at the insurer</text>
<text x="740.0" y="786.4" font-size="9" fill="#334155">recover by insurerRef (S-12); never resubmit</text>
<text x="1300.0" y="786.4" font-size="9" fill="#334155">auto, then ops task</text>
<text x="1600.0" y="786.4" font-size="9" fill="#334155">#11 + #14</text>
<line x1="52.0" y1="796.0" x2="1848.0" y2="796.0" stroke="#cbd5e1" stroke-width="0.8"/>
<rect x="52.0" y="796.0" width="1796.0" height="26.0" rx="0" fill="#f8fafc"/>
<text x="60.0" y="812.4" font-size="9" fill="#334155">PAYMENT_PENDING</text>
<text x="360.0" y="812.4" font-size="9" fill="#334155">customer never paid, link expired</text>
<text x="740.0" y="812.4" font-size="9" fill="#334155">expire the session; the journey stays resumable at UW_APPROVED</text>
<text x="1300.0" y="812.4" font-size="9" fill="#334155">auto</text>
<text x="1600.0" y="812.4" font-size="9" fill="#334155">#12</text>
<line x1="52.0" y1="822.0" x2="1848.0" y2="822.0" stroke="#cbd5e1" stroke-width="0.8"/>
<text x="60.0" y="838.4" font-size="9" fill="#334155">PAYMENT_UNCERTAIN</text>
<text x="360.0" y="838.4" font-size="9" fill="#334155">callback lost or delayed</text>
<text x="740.0" y="838.4" font-size="9" fill="#334155">settlement file at T+1 arbitrates; unresolved → break task</text>
<text x="1300.0" y="838.4" font-size="9" fill="#334155">auto, then Finance</text>
<text x="1600.0" y="838.4" font-size="9" fill="#334155">#12 + Finance</text>
<line x1="52.0" y1="848.0" x2="1848.0" y2="848.0" stroke="#cbd5e1" stroke-width="0.8"/>
<rect x="52.0" y="848.0" width="1796.0" height="26.0" rx="0" fill="#f8fafc"/>
<text x="60.0" y="864.4" font-size="9" fill="#334155">PAYMENT_RECONCILED, issuance fails</text>
<text x="360.0" y="864.4" font-size="9" fill="#334155">money taken, no policy</text>
<text x="740.0" y="864.4" font-size="9" fill="#334155">retry issuance; if terminal, the refund path opens and the journey never reads SOLD</text>
<text x="1300.0" y="864.4" font-size="9" fill="#334155">ops task, Finance owns the money</text>
<text x="1600.0" y="864.4" font-size="9" fill="#334155">#13 + Finance</text>
<line x1="52.0" y1="874.0" x2="1848.0" y2="874.0" stroke="#cbd5e1" stroke-width="0.8"/>
<text x="60.0" y="890.4" font-size="9" fill="#334155">CANCELLED_IN_FLIGHT after payment</text>
<text x="360.0" y="890.4" font-size="9" fill="#334155">customer withdrew post-payment</text>
<text x="740.0" y="890.4" font-size="9" fill="#334155">refund compensation; consent withdrawal recorded as its own event</text>
<text x="1300.0" y="890.4" font-size="9" fill="#334155">ops task</text>
<text x="1600.0" y="890.4" font-size="9" fill="#334155">#12 + #6</text>
<line x1="52.0" y1="900.0" x2="1848.0" y2="900.0" stroke="#cbd5e1" stroke-width="0.8"/>
<rect x="52.0" y="900.0" width="1796.0" height="26.0" rx="0" fill="#f8fafc"/>
<text x="60.0" y="916.4" font-size="9" fill="#334155">Audit write failed</text>
<text x="360.0" y="916.4" font-size="9" fill="#334155">business effect happened, evidence did not land</text>
<text x="740.0" y="916.4" font-size="9" fill="#334155">outbox retry (S-17); journey completion waits — it does not proceed</text>
<text x="1300.0" y="916.4" font-size="9" fill="#334155">auto, alert on threshold</text>
<text x="1600.0" y="916.4" font-size="9" fill="#334155">#16</text>
<line x1="52.0" y1="926.0" x2="1848.0" y2="926.0" stroke="#cbd5e1" stroke-width="0.8"/>
<rect x="52.0" y="744.0" width="1796.0" height="182.0" rx="4" fill="none" stroke="#cbd5e1" stroke-width="1"/>
<line x1="52.0" y1="934.0" x2="1848.0" y2="934.0" stroke="#cbd5e1" stroke-width="1"/>
<rect x="52.0" y="939.0" width="16.0" height="14.0" rx="3" fill="#dbeafe" stroke="#2563eb" stroke-width="1.3"/>
<text x="76.0" y="952.0" font-size="9.5" fill="#475569">in-flight state</text>
<rect x="175.3" y="939.0" width="16.0" height="14.0" rx="3" fill="#fef3c7" stroke="#dc2626" stroke-width="1.3"/>
<text x="199.3" y="952.0" font-size="9.5" fill="#475569">gate state — a control is enforced on entry</text>
<rect x="428.0" y="939.0" width="16.0" height="14.0" rx="3" fill="#ffffff" stroke="#94a3b8" stroke-width="1.3" stroke-dasharray="3 2"/>
<text x="452.0" y="952.0" font-size="9.5" fill="#475569">waiting on something outside the platform</text>
<rect x="671.4" y="939.0" width="16.0" height="14.0" rx="3" fill="#ecfdf5" stroke="#059669" stroke-width="1.3"/>
<text x="695.4" y="952.0" font-size="9.5" fill="#475569">terminal — success</text>
<rect x="808.5" y="939.0" width="16.0" height="14.0" rx="3" fill="#fef2f2" stroke="#dc2626" stroke-width="1.3"/>
<text x="832.5" y="952.0" font-size="9.5" fill="#475569">terminal — not a success, recorded honestly</text>
<text x="52.0" y="1040.0" font-size="9.5" fill="#64748b" font-weight="bold">DRAFT FOR REVIEW · v0.2 · not approved, not authorised for development · AI-drafted; no human signature</text>
<text x="1848.0" y="1040.0" font-size="9.5" fill="#64748b" text-anchor="end">WS-3 · AU Bank Insurance Distribution Platform · R0</text>
</svg>
