<svg xmlns="http://www.w3.org/2000/svg" width="2000" height="1280" viewBox="0 0 2000 1280" font-family="Helvetica, Arial, sans-serif">
  <defs>
    <marker id="arr" viewBox="0 0 10 10" refX="9" refY="5" markerWidth="7" markerHeight="7" orient="auto-start-reverse">
      <path d="M0,0 L10,5 L0,10 z" fill="#334155"/>
    </marker>
    <marker id="arrGray" viewBox="0 0 10 10" refX="9" refY="5" markerWidth="7" markerHeight="7" orient="auto-start-reverse">
      <path d="M0,0 L10,5 L0,10 z" fill="#94a3b8"/>
    </marker>
  </defs>

  <rect width="2000" height="1280" fill="#ffffff"/>

  <!-- Title -->
  <text x="1000" y="34" text-anchor="middle" font-size="24" font-weight="bold" fill="#0f172a">AU Bank Insurance Platform - Full HLD with Release Scope</text>
  <text x="1000" y="56" text-anchor="middle" font-size="12" fill="#475569">Same topology as the R0 HLD, coloured by when each box enters the programme. R0 is the assisted Term pilot slice; R1/R2+ deepen the same spine - they do not invent a second architecture.</text>

  <!-- Legend bar -->
  <rect x="40" y="72" width="1920" height="52" rx="8" fill="#f8fafc" stroke="#cbd5e1"/>
  <rect x="60" y="88" width="18" height="18" rx="3" fill="#c7d2fe" stroke="#4338ca" stroke-width="1.5"/>
  <text x="86" y="102" font-size="12" fill="#0f172a">R0 - assisted Term pilot (build now after S08/S09)</text>
  <rect x="430" y="88" width="18" height="18" rx="3" fill="#fde68a" stroke="#b45309" stroke-width="1.5"/>
  <text x="456" y="102" font-size="12" fill="#0f172a">R1 - after a real assisted sale (DIY, Group B, deepen)</text>
  <rect x="860" y="88" width="18" height="18" rx="3" fill="#ffffff" stroke="#64748b" stroke-width="1.5" stroke-dasharray="4 3"/>
  <text x="886" y="102" font-size="12" fill="#0f172a">R2+ - renewals, NTB, non-life, direct adapters, control tower</text>
  <rect x="1380" y="88" width="18" height="18" rx="3" fill="#d1fae5" stroke="#059669" stroke-width="1.5"/>
  <text x="1406" y="102" font-size="12" fill="#0f172a">WS-2 enabler</text>
  <rect x="1560" y="88" width="18" height="18" rx="3" fill="#e2e8f0" stroke="#475569" stroke-width="1.5"/>
  <text x="1586" y="102" font-size="12" fill="#0f172a">WS-1 supplier (exists)</text>
  <text x="1860" y="102" font-size="11" fill="#64748b">SUG-20260818-4c3</text>

  <!-- CHANNELS -->
  <text x="40" y="150" font-size="11" font-weight="bold" fill="#64748b" letter-spacing="1">CHANNELS</text>

  <rect x="40" y="160" width="220" height="70" rx="6" fill="#c7d2fe" stroke="#4338ca" stroke-width="1.5"/>
  <text x="150" y="188" text-anchor="middle" font-size="13" font-weight="bold" fill="#0f172a">Flutter RM App</text>
  <text x="150" y="208" text-anchor="middle" font-size="10" fill="#334155">R0 assisted journey</text>

  <rect x="280" y="160" width="220" height="70" rx="6" fill="#fde68a" stroke="#b45309" stroke-width="1.5"/>
  <text x="390" y="188" text-anchor="middle" font-size="13" font-weight="bold" fill="#0f172a">Flutter Customer App</text>
  <text x="390" y="208" text-anchor="middle" font-size="10" fill="#334155">R1 DIY surface</text>

  <rect x="520" y="160" width="200" height="70" rx="6" fill="#c7d2fe" stroke="#4338ca" stroke-width="1.5"/>
  <text x="620" y="188" text-anchor="middle" font-size="13" font-weight="bold" fill="#0f172a">Customer Device</text>
  <text x="620" y="208" text-anchor="middle" font-size="10" fill="#334155">R0 OTP + payment only</text>

  <rect x="1740" y="160" width="220" height="70" rx="6" fill="#ffffff" stroke="#64748b" stroke-width="1.5" stroke-dasharray="4 3"/>
  <text x="1850" y="188" text-anchor="middle" font-size="13" font-weight="bold" fill="#0f172a">Branch Kiosk</text>
  <text x="1850" y="208" text-anchor="middle" font-size="10" fill="#64748b">R2+ pending GAP-033</text>

  <!-- EDGE -->
  <rect x="40" y="255" width="680" height="50" rx="6" fill="#ffedd5" stroke="#ea580c" stroke-width="1.5"/>
  <text x="380" y="285" text-anchor="middle" font-size="14" font-weight="bold" fill="#0f172a">Edge - WAF / CDN / API Gateway  (only public entry)</text>

  <!-- AWS boundary -->
  <rect x="40" y="325" width="1680" height="720" rx="10" fill="#f8fafc" stroke="#94a3b8" stroke-width="1.5" stroke-dasharray="6 4"/>
  <text x="60" y="348" font-size="11" font-weight="bold" fill="#475569">AWS ap-south-1 EKS private subnets  |  DR warm standby ap-south-2  |  database-per-service (ARCH-004)</text>

  <!-- BFFs -->
  <text x="60" y="375" font-size="10" font-weight="bold" fill="#64748b">EDGE SERVICES</text>
  <rect x="60" y="385" width="200" height="60" rx="6" fill="#c7d2fe" stroke="#4338ca" stroke-width="1.5"/>
  <text x="160" y="410" text-anchor="middle" font-size="12" font-weight="bold" fill="#0f172a">#2 RM Workspace BFF</text>
  <text x="160" y="428" text-anchor="middle" font-size="10" fill="#334155">R0 token-hiding session</text>

  <rect x="280" y="385" width="200" height="60" rx="6" fill="#fde68a" stroke="#b45309" stroke-width="1.5"/>
  <text x="380" y="410" text-anchor="middle" font-size="12" font-weight="bold" fill="#0f172a">#1 Customer BFF</text>
  <text x="380" y="428" text-anchor="middle" font-size="10" fill="#334155">R1 DIY session facade</text>

  <!-- WS-2 -->
  <rect x="520" y="385" width="280" height="120" rx="8" fill="#d1fae5" stroke="#059669" stroke-width="1.5"/>
  <text x="660" y="408" text-anchor="middle" font-size="11" font-weight="bold" fill="#065f46">WS-2 Identity (enabler)</text>
  <rect x="540" y="420" width="240" height="36" rx="4" fill="#ffffff" stroke="#059669"/>
  <text x="660" y="443" text-anchor="middle" font-size="11" font-weight="bold" fill="#0f172a">#3 provider-adapter + PDP</text>
  <text x="660" y="488" text-anchor="middle" font-size="10" fill="#065f46">R0 workforce  |  R1+ retail customer auth</text>

  <!-- Journey -->
  <rect x="840" y="385" width="560" height="60" rx="6" fill="#c7d2fe" stroke="#4338ca" stroke-width="2"/>
  <text x="1120" y="410" text-anchor="middle" font-size="13" font-weight="bold" fill="#0f172a">#9 Journey Orchestration</text>
  <text x="1120" y="428" text-anchor="middle" font-size="10" fill="#334155">R0 assisted state machine  |  R1 DIY+hybrid modes  |  R2+ servicing journeys</text>

  <!-- Admin -->
  <rect x="1440" y="385" width="240" height="60" rx="6" fill="#fde68a" stroke="#b45309" stroke-width="1.5"/>
  <text x="1560" y="410" text-anchor="middle" font-size="12" font-weight="bold" fill="#0f172a">#19 Admin and Config</text>
  <text x="1560" y="428" text-anchor="middle" font-size="10" fill="#334155">R0 artefacts  |  R1 Admin UI</text>

  <!-- Advisory row -->
  <text x="60" y="540" font-size="10" font-weight="bold" fill="#64748b">SALES AND ADVISORY</text>

  <rect x="60" y="550" width="150" height="70" rx="6" fill="#c7d2fe" stroke="#4338ca" stroke-width="1.5"/>
  <text x="135" y="578" text-anchor="middle" font-size="12" font-weight="bold" fill="#0f172a">#4 Customer</text>
  <text x="135" y="598" text-anchor="middle" font-size="10" fill="#334155">R0 ETB/CBS</text>

  <rect x="230" y="550" width="150" height="70" rx="6" fill="#c7d2fe" stroke="#4338ca" stroke-width="1.5"/>
  <text x="305" y="570" text-anchor="middle" font-size="12" font-weight="bold" fill="#0f172a">#5 Lead</text>
  <text x="305" y="588" text-anchor="middle" font-size="10" fill="#334155">R0 thin</text>
  <text x="305" y="604" text-anchor="middle" font-size="10" fill="#b45309">R1 bulk/campaign</text>

  <rect x="400" y="550" width="150" height="70" rx="6" fill="#c7d2fe" stroke="#4338ca" stroke-width="1.5"/>
  <text x="475" y="578" text-anchor="middle" font-size="12" font-weight="bold" fill="#0f172a">#6 Consent</text>
  <text x="475" y="598" text-anchor="middle" font-size="10" fill="#334155">R0 C2 hard gate</text>

  <rect x="570" y="550" width="150" height="70" rx="6" fill="#c7d2fe" stroke="#4338ca" stroke-width="1.5"/>
  <text x="645" y="570" text-anchor="middle" font-size="12" font-weight="bold" fill="#0f172a">#7 Suitability</text>
  <text x="645" y="588" text-anchor="middle" font-size="10" fill="#334155">R0 Term C1</text>
  <text x="645" y="604" text-anchor="middle" font-size="10" fill="#b45309">R1 ULIP/Savings</text>

  <rect x="740" y="550" width="160" height="70" rx="6" fill="#c7d2fe" stroke="#4338ca" stroke-width="1.5"/>
  <text x="820" y="570" text-anchor="middle" font-size="12" font-weight="bold" fill="#0f172a">#8 Catalogue</text>
  <text x="820" y="588" text-anchor="middle" font-size="10" fill="#334155">R0 Life/Term/A</text>
  <text x="820" y="604" text-anchor="middle" font-size="10" fill="#b45309">R1 Group B+</text>

  <rect x="920" y="550" width="150" height="70" rx="6" fill="#c7d2fe" stroke="#4338ca" stroke-width="1.5"/>
  <text x="995" y="570" text-anchor="middle" font-size="12" font-weight="bold" fill="#0f172a">#10 Quotation</text>
  <text x="995" y="588" text-anchor="middle" font-size="10" fill="#334155">R0 via Hub/1SB</text>
  <text x="995" y="604" text-anchor="middle" font-size="10" fill="#b45309">R1 offer cache?</text>

  <rect x="1090" y="550" width="160" height="70" rx="6" fill="#c7d2fe" stroke="#4338ca" stroke-width="1.5"/>
  <text x="1170" y="570" text-anchor="middle" font-size="12" font-weight="bold" fill="#0f172a">#11 Proposal/UW</text>
  <text x="1170" y="588" text-anchor="middle" font-size="10" fill="#334155">R0 thin</text>
  <text x="1170" y="604" text-anchor="middle" font-size="10" fill="#b45309">R1 ACR depth</text>

  <!-- Fulfilment -->
  <text x="60" y="660" font-size="10" font-weight="bold" fill="#64748b">FULFILMENT</text>
  <rect x="60" y="670" width="200" height="70" rx="6" fill="#c7d2fe" stroke="#4338ca" stroke-width="1.5"/>
  <text x="160" y="698" text-anchor="middle" font-size="12" font-weight="bold" fill="#0f172a">#12 Payment</text>
  <text x="160" y="718" text-anchor="middle" font-size="10" fill="#334155">R0 AU PG + recon (C4)</text>

  <rect x="280" y="670" width="220" height="70" rx="6" fill="#c7d2fe" stroke="#4338ca" stroke-width="1.5"/>
  <text x="390" y="690" text-anchor="middle" font-size="12" font-weight="bold" fill="#0f172a">#13 Policy and Issuance</text>
  <text x="390" y="708" text-anchor="middle" font-size="10" fill="#334155">R0 confirm + PDF</text>
  <text x="390" y="724" text-anchor="middle" font-size="10" fill="#64748b">R2+ renewals/servicing</text>

  <!-- Integration -->
  <text x="560" y="660" font-size="10" font-weight="bold" fill="#64748b">INTEGRATION (replaceable)</text>
  <rect x="560" y="670" width="280" height="70" rx="6" fill="#c7d2fe" stroke="#4338ca" stroke-width="1.5"/>
  <text x="700" y="698" text-anchor="middle" font-size="12" font-weight="bold" fill="#0f172a">#14 Integration Hub</text>
  <text x="700" y="718" text-anchor="middle" font-size="10" fill="#334155">R0 route to 1SB  |  R2+ multi-adapter</text>

  <rect x="860" y="670" width="200" height="70" rx="6" fill="#e2e8f0" stroke="#475569" stroke-width="1.5"/>
  <text x="960" y="698" text-anchor="middle" font-size="12" font-weight="bold" fill="#0f172a">#15 1SB Adapter</text>
  <text x="960" y="718" text-anchor="middle" font-size="10" fill="#334155">WS-1 exists today</text>

  <rect x="1080" y="670" width="220" height="70" rx="6" fill="#ffffff" stroke="#64748b" stroke-width="1.5" stroke-dasharray="4 3"/>
  <text x="1190" y="698" text-anchor="middle" font-size="12" font-weight="bold" fill="#0f172a">Direct Insurer Adapter(s)</text>
  <text x="1190" y="718" text-anchor="middle" font-size="10" fill="#64748b">R2+ Phase B/C + local cache</text>

  <!-- Platform -->
  <text x="60" y="780" font-size="10" font-weight="bold" fill="#64748b">PLATFORM / CROSS-CUTTING</text>
  <rect x="60" y="790" width="280" height="70" rx="6" fill="#c7d2fe" stroke="#4338ca" stroke-width="1.5"/>
  <text x="200" y="818" text-anchor="middle" font-size="12" font-weight="bold" fill="#0f172a">#16 Audit and Compliance</text>
  <text x="200" y="838" text-anchor="middle" font-size="10" fill="#334155">R0 append-only evidence</text>

  <rect x="360" y="790" width="240" height="70" rx="6" fill="#c7d2fe" stroke="#4338ca" stroke-width="1.5"/>
  <text x="480" y="810" text-anchor="middle" font-size="12" font-weight="bold" fill="#0f172a">#17 Notification</text>
  <text x="480" y="828" text-anchor="middle" font-size="10" fill="#334155">R0 OTP + pay-link</text>
  <text x="480" y="844" text-anchor="middle" font-size="10" fill="#b45309">R1 welcome calling+</text>

  <rect x="620" y="790" width="240" height="70" rx="6" fill="#fde68a" stroke="#b45309" stroke-width="1.5"/>
  <text x="740" y="810" text-anchor="middle" font-size="12" font-weight="bold" fill="#0f172a">#18 Reporting and MIS</text>
  <text x="740" y="828" text-anchor="middle" font-size="10" fill="#334155">R0 pilot funnel only</text>
  <text x="740" y="844" text-anchor="middle" font-size="10" fill="#b45309">R1 full MIS / DWH</text>

  <rect x="880" y="790" width="240" height="70" rx="6" fill="#ffffff" stroke="#64748b" stroke-width="1.5" stroke-dasharray="4 3"/>
  <text x="1000" y="818" text-anchor="middle" font-size="12" font-weight="bold" fill="#0f172a">Executive Control Tower</text>
  <text x="1000" y="838" text-anchor="middle" font-size="10" fill="#64748b">R2 after real funnel data</text>

  <!-- Data -->
  <rect x="60" y="890" width="1620" height="130" rx="8" fill="#f1f5f9" stroke="#64748b"/>
  <text x="80" y="915" font-size="12" font-weight="bold" fill="#334155">DATA ENGINES (why not one MongoDB for everything)</text>

  <rect x="80" y="930" width="300" height="70" rx="6" fill="#ffffff" stroke="#475569"/>
  <text x="230" y="958" text-anchor="middle" font-size="12" font-weight="bold" fill="#0f172a">Aurora PostgreSQL</text>
  <text x="230" y="978" text-anchor="middle" font-size="10" fill="#475569">Customer, Lead, Consent, Suitability,</text>
  <text x="230" y="992" text-anchor="middle" font-size="10" fill="#475569">Catalogue, Proposal, Payment, Policy, Admin</text>

  <rect x="400" y="930" width="280" height="70" rx="6" fill="#ffffff" stroke="#475569"/>
  <text x="540" y="958" text-anchor="middle" font-size="12" font-weight="bold" fill="#0f172a">DynamoDB</text>
  <text x="540" y="978" text-anchor="middle" font-size="10" fill="#475569">Journey state, Quote jobs,</text>
  <text x="540" y="992" text-anchor="middle" font-size="10" fill="#475569">Audit hot store, Notification log</text>

  <rect x="700" y="930" width="280" height="70" rx="6" fill="#ffffff" stroke="#475569"/>
  <text x="840" y="958" text-anchor="middle" font-size="12" font-weight="bold" fill="#0f172a">Redis (ElastiCache)</text>
  <text x="840" y="978" text-anchor="middle" font-size="10" fill="#475569">Catalogue read-through,</text>
  <text x="840" y="992" text-anchor="middle" font-size="10" fill="#475569">idempotency - not quote payload cache in R0</text>

  <rect x="1000" y="930" width="300" height="70" rx="6" fill="#ffffff" stroke="#475569"/>
  <text x="1150" y="958" text-anchor="middle" font-size="12" font-weight="bold" fill="#0f172a">S3 + Object Lock</text>
  <text x="1150" y="978" text-anchor="middle" font-size="10" fill="#475569">Raw payloads, policy PDFs,</text>
  <text x="1150" y="992" text-anchor="middle" font-size="10" fill="#475569">7-year WORM evidence archive</text>

  <rect x="1320" y="930" width="340" height="70" rx="6" fill="#fff7ed" stroke="#c2410c"/>
  <text x="1490" y="958" text-anchor="middle" font-size="12" font-weight="bold" fill="#0f172a">Not chosen as default: MongoDB</text>
  <text x="1490" y="978" text-anchor="middle" font-size="10" fill="#9a3412">Quote = DynamoDB jobs; Proposal = Aurora integrity.</text>
  <text x="1490" y="992" text-anchor="middle" font-size="10" fill="#9a3412">See justification doc section 5.</text>

  <!-- Externals -->
  <text x="1760" y="348" font-size="10" font-weight="bold" fill="#64748b">EXTERNAL SYSTEMS</text>
  <rect x="1760" y="360" width="200" height="55" rx="6" fill="#ffffff" stroke="#64748b" stroke-dasharray="4 3"/>
  <text x="1860" y="392" text-anchor="middle" font-size="12" font-weight="bold" fill="#0f172a">Bank AD / SSO</text>

  <rect x="1760" y="430" width="200" height="55" rx="6" fill="#ffffff" stroke="#64748b" stroke-dasharray="4 3"/>
  <text x="1860" y="462" text-anchor="middle" font-size="12" font-weight="bold" fill="#0f172a">CBS (CIF / ETB)</text>

  <rect x="1760" y="500" width="200" height="55" rx="6" fill="#ffffff" stroke="#64748b" stroke-dasharray="4 3"/>
  <text x="1860" y="532" text-anchor="middle" font-size="12" font-weight="bold" fill="#0f172a">AU Bank PG</text>

  <rect x="1760" y="570" width="200" height="55" rx="6" fill="#ffffff" stroke="#64748b" stroke-dasharray="4 3"/>
  <text x="1860" y="602" text-anchor="middle" font-size="12" font-weight="bold" fill="#0f172a">1SilverBullet</text>

  <rect x="1760" y="640" width="200" height="55" rx="6" fill="#ffffff" stroke="#64748b" stroke-dasharray="4 3"/>
  <text x="1860" y="662" text-anchor="middle" font-size="12" font-weight="bold" fill="#0f172a">Group A Insurers</text>
  <text x="1860" y="678" text-anchor="middle" font-size="10" fill="#64748b">via 1SB in R0</text>

  <rect x="1760" y="710" width="200" height="55" rx="6" fill="#ffffff" stroke="#64748b" stroke-dasharray="4 3"/>
  <text x="1860" y="732" text-anchor="middle" font-size="12" font-weight="bold" fill="#0f172a">Direct Insurers</text>
  <text x="1860" y="748" text-anchor="middle" font-size="10" fill="#64748b">R2+ Phase B/C</text>

  <rect x="1760" y="780" width="200" height="55" rx="6" fill="#fde68a" stroke="#b45309"/>
  <text x="1860" y="802" text-anchor="middle" font-size="12" font-weight="bold" fill="#0f172a">Group B redirect</text>
  <text x="1860" y="818" text-anchor="middle" font-size="10" fill="#92400e">R1 catalogue link-out</text>

  <!-- Key flows -->
  <path d="M150,230 L150,255" fill="none" stroke="#334155" stroke-width="1.6" marker-end="url(#arr)"/>
  <path d="M390,230 L390,255" fill="none" stroke="#94a3b8" stroke-width="1.4" stroke-dasharray="4 3" marker-end="url(#arrGray)"/>
  <path d="M380,305 L160,385" fill="none" stroke="#334155" stroke-width="1.6" marker-end="url(#arr)"/>
  <path d="M380,305 L380,385" fill="none" stroke="#94a3b8" stroke-width="1.4" stroke-dasharray="4 3" marker-end="url(#arrGray)"/>
  <path d="M260,415 L520,445" fill="none" stroke="#334155" stroke-width="1.4" marker-end="url(#arr)"/>
  <path d="M160,445 L160,520 L1120,520 L1120,445" fill="none" stroke="#334155" stroke-width="1.5" marker-end="url(#arr)"/>
  <path d="M995,620 L995,650 L700,650 L700,670" fill="none" stroke="#334155" stroke-width="1.5" marker-end="url(#arr)"/>
  <path d="M1170,620 L1170,650 L720,650 L720,670" fill="none" stroke="#334155" stroke-width="1.4" marker-end="url(#arr)"/>
  <path d="M840,705 L860,705" fill="none" stroke="#334155" stroke-width="1.6" marker-end="url(#arr)"/>
  <path d="M1060,705 L1080,705" fill="none" stroke="#94a3b8" stroke-width="1.4" stroke-dasharray="4 3" marker-end="url(#arrGray)"/>
  <path d="M1060,705 L1700,705 L1700,597 L1760,597" fill="none" stroke="#334155" stroke-width="1.4" marker-end="url(#arr)"/>
  <path d="M160,740 L160,770 L1860,770 L1860,555" fill="none" stroke="#334155" stroke-width="1.3" marker-end="url(#arr)"/>
  <path d="M620,230 L620,250 L1700,250 L1700,527 L1760,527" fill="none" stroke="#334155" stroke-width="1.4" marker-end="url(#arr)"/>

  <!-- Bottom strip: outcomes -->
  <rect x="40" y="1065" width="1920" height="180" rx="10" fill="#fffbeb" stroke="#b45309"/>
  <text x="60" y="1090" font-size="13" font-weight="bold" fill="#92400e">WHAT THIS ARCHITECTURE ACHIEVES (and what each release unlocks)</text>

  <rect x="60" y="1105" width="600" height="120" rx="6" fill="#ffffff" stroke="#4338ca"/>
  <text x="80" y="1128" font-size="12" font-weight="bold" fill="#4338ca">R0 - prove one lawful assisted sale</text>
  <text x="80" y="1148" font-size="11" fill="#334155">C1 suitability gate, C2 consent evidence, C4 customer-device pay,</text>
  <text x="80" y="1164" font-size="11" fill="#334155">issued+reconciled policy, immutable audit, Hub in front of 1SB,</text>
  <text x="80" y="1180" font-size="11" fill="#334155">Flutter RM UI. Foundation S08/S09 first. No quote payload cache.</text>
  <text x="80" y="1204" font-size="11" fill="#64748b">Success = one RM completes Term Life end-to-end in pilot.</text>

  <rect x="680" y="1105" width="600" height="120" rx="6" fill="#ffffff" stroke="#b45309"/>
  <text x="700" y="1128" font-size="12" font-weight="bold" fill="#b45309">R1 - scale the proven journey</text>
  <text x="700" y="1148" font-size="11" fill="#334155">Customer BFF + DIY app, Group B redirect, ULIP/Savings,</text>
  <text x="700" y="1164" font-size="11" fill="#334155">Lead bulk/campaign, Admin UI, full MIS, richer notification,</text>
  <text x="700" y="1180" font-size="11" fill="#334155">optional suitability-bound offer cache, vernacular hi-IN.</text>
  <text x="700" y="1204" font-size="11" fill="#64748b">Starts only after a real assisted policy is sold.</text>

  <rect x="1300" y="1105" width="640" height="120" rx="6" fill="#ffffff" stroke="#64748b" stroke-dasharray="4 3"/>
  <text x="1320" y="1128" font-size="12" font-weight="bold" fill="#475569">R2+ - mature distribution platform</text>
  <text x="1320" y="1148" font-size="11" fill="#334155">Hybrid mode switching, renewals/servicing, NTB/V-KYC,</text>
  <text x="1320" y="1164" font-size="11" fill="#334155">Health/Motor after WS-1 Phase 5, Direct Insurer adapters</text>
  <text x="1320" y="1180" font-size="11" fill="#334155">(adapter-local caching), multi-adapter Hub, control tower.</text>
  <text x="1320" y="1204" font-size="11" fill="#64748b">Domains stable; only adapters and depth change.</text>

  <text x="60" y="1260" font-size="10" fill="#94a3b8">AI-DRAFTED Mahesh Board 1 - human T4 signature outstanding - companions: 06-architecture-justification-and-review-answers.md + WS3-R0-HLD - 2026-08-18</text>
</svg>
